<svg xmlns="http://www.w3.org/2000/svg" xmlns:xlink="http://www.w3.org/1999/xlink" width="500" zoomAndPan="magnify" viewBox="0 0 375 374.999991" height="500" preserveAspectRatio="xMidYMid meet" version="1.0"><defs><g/><clipPath id="d55fc856d1"><path d="M 115.257812 70.128906 L 344.757812 70.128906 L 344.757812 299.628906 L 115.257812 299.628906 Z M 115.257812 70.128906 " clip-rule="nonzero"/></clipPath><clipPath id="68270a4abf"><path d="M 145.101562 99.96875 L 314.601562 99.96875 L 314.601562 269.46875 L 145.101562 269.46875 Z M 145.101562 99.96875 " clip-rule="nonzero"/></clipPath><clipPath id="79d007aa5e"><path d="M 30.464844 70.128906 L 259.964844 70.128906 L 259.964844 299.628906 L 30.464844 299.628906 Z M 30.464844 70.128906 " clip-rule="nonzero"/></clipPath><clipPath id="d3aa36ea46"><path d="M 60.304688 99.96875 L 229.804688 99.96875 L 229.804688 269.46875 L 60.304688 269.46875 Z M 60.304688 99.96875 " clip-rule="nonzero"/></clipPath></defs><g clip-path="url(#d55fc856d1)"><path fill="#5b8641" d="M 230.007812 299.628906 C 166.613281 299.628906 115.257812 247.917969 115.257812 184.878906 C 115.257812 121.835938 166.613281 70.128906 230.007812 70.128906 C 293.40625 70.128906 344.757812 121.480469 344.757812 184.878906 C 344.757812 248.273438 293.050781 299.628906 230.007812 299.628906 Z M 230.007812 77.210938 C 170.507812 77.210938 122.34375 125.378906 122.34375 184.878906 C 122.34375 244.378906 170.507812 292.542969 230.007812 292.542969 C 289.507812 292.542969 337.675781 244.378906 337.675781 184.878906 C 337.675781 125.378906 289.15625 77.210938 230.007812 77.210938 Z M 230.007812 77.210938 " fill-opacity="1" fill-rule="nonzero"/></g><g clip-path="url(#68270a4abf)"><path fill="#5b8641" d="M 229.851562 269.46875 C 183.03125 269.46875 145.101562 231.28125 145.101562 184.71875 C 145.101562 138.160156 183.03125 99.96875 229.851562 99.96875 C 276.671875 99.96875 314.601562 137.898438 314.601562 184.71875 C 314.601562 231.542969 276.410156 269.46875 229.851562 269.46875 Z M 229.851562 105.199219 C 185.90625 105.199219 150.332031 140.773438 150.332031 184.71875 C 150.332031 228.664062 185.90625 264.238281 229.851562 264.238281 C 273.796875 264.238281 309.371094 228.664062 309.371094 184.71875 C 309.371094 140.773438 273.535156 105.199219 229.851562 105.199219 Z M 229.851562 105.199219 " fill-opacity="1" fill-rule="nonzero"/></g><g clip-path="url(#79d007aa5e)"><path fill="#1c2a8b" d="M 145.214844 299.628906 C 81.816406 299.628906 30.464844 247.917969 30.464844 184.878906 C 30.464844 121.835938 81.816406 70.128906 145.214844 70.128906 C 208.609375 70.128906 259.964844 121.480469 259.964844 184.878906 C 259.964844 248.273438 208.253906 299.628906 145.214844 299.628906 Z M 145.214844 77.210938 C 85.714844 77.210938 37.546875 125.378906 37.546875 184.878906 C 37.546875 244.378906 85.714844 292.542969 145.214844 292.542969 C 204.714844 292.542969 252.878906 244.378906 252.878906 184.878906 C 252.878906 125.378906 204.359375 77.210938 145.214844 77.210938 Z M 145.214844 77.210938 " fill-opacity="1" fill-rule="nonzero"/></g><g clip-path="url(#d3aa36ea46)"><path fill="#1c2a8b" d="M 145.054688 269.46875 C 98.234375 269.46875 60.304688 231.28125 60.304688 184.71875 C 60.304688 138.160156 98.234375 99.96875 145.054688 99.96875 C 191.878906 99.96875 229.804688 137.898438 229.804688 184.71875 C 229.804688 231.542969 191.617188 269.46875 145.054688 269.46875 Z M 145.054688 105.199219 C 101.109375 105.199219 65.535156 140.773438 65.535156 184.71875 C 65.535156 228.664062 101.109375 264.238281 145.054688 264.238281 C 189 264.238281 224.574219 228.664062 224.574219 184.71875 C 224.574219 140.773438 188.738281 105.199219 145.054688 105.199219 Z M 145.054688 105.199219 " fill-opacity="1" fill-rule="nonzero"/></g><g fill="#1c2a8b" fill-opacity="1"><g transform="translate(67.633726, 56.07618)"><g><path d="M 15.625 -40.34375 C 18.039062 -40.34375 19.351562 -39.796875 19.5625 -38.703125 L 23.125 -22.609375 L 26.75 -1.15625 C 26.820312 -0.800781 26.859375 -0.472656 26.859375 -0.171875 C 26.859375 0.117188 26.769531 0.359375 26.59375 0.546875 C 26.414062 0.742188 25.820312 0.84375 24.8125 0.84375 C 21.695312 0.84375 20.035156 0.175781 19.828125 -1.15625 L 17.984375 -11.953125 L 10.640625 -11.953125 L 9.015625 -1.09375 C 8.910156 -0.363281 8.78125 0.117188 8.625 0.359375 C 8.46875 0.609375 8.25 0.75 7.96875 0.78125 C 7.6875 0.820312 7.234375 0.84375 6.609375 0.84375 L 5.140625 0.84375 C 3.910156 0.84375 3.140625 0.769531 2.828125 0.625 C 2.054688 0.34375 1.617188 0.03125 1.515625 -0.3125 C 1.484375 -0.488281 1.46875 -0.644531 1.46875 -0.78125 C 1.46875 -0.925781 1.832031 -3.234375 2.5625 -7.703125 C 3.300781 -12.179688 4.203125 -17.515625 5.265625 -23.703125 C 6.335938 -29.898438 7.039062 -33.957031 7.375 -35.875 C 7.707031 -37.800781 7.890625 -38.882812 7.921875 -39.125 C 8.054688 -39.9375 10.625 -40.34375 15.625 -40.34375 Z M 14.0625 -33.46875 L 11.640625 -18.3125 L 16.84375 -18.3125 Z M 14.0625 -33.46875 "/></g></g></g><g fill="#1c2a8b" fill-opacity="1"><g transform="translate(95.904403, 56.07618)"><g><path d="M 9.4375 0 C 9.4375 0.207031 9.40625 0.347656 9.34375 0.421875 C 9.195312 0.703125 8.546875 0.84375 7.390625 0.84375 C 6.242188 0.84375 5.117188 0.753906 4.015625 0.578125 C 2.910156 0.398438 2.359375 0.207031 2.359375 0 L 2.359375 -39.4375 C 2.359375 -40 2.96875 -40.28125 4.1875 -40.28125 C 5.414062 -40.28125 6.429688 -40.203125 7.234375 -40.046875 C 8.035156 -39.890625 8.457031 -39.6875 8.5 -39.4375 L 9.4375 -22.609375 Z M 9.4375 0 "/></g></g></g><g fill="#1c2a8b" fill-opacity="1"><g transform="translate(107.548365, 56.07618)"><g><path d="M 4.875 -21.828125 L 0.6875 -21.828125 C 0.257812 -21.828125 0.0195312 -21.921875 -0.03125 -22.109375 C -0.0820312 -22.296875 -0.109375 -22.515625 -0.109375 -22.765625 C -0.109375 -24.265625 0.15625 -25.066406 0.6875 -25.171875 L 4.875 -26.015625 L 7.8125 -31.9375 C 8.226562 -32.46875 9.035156 -32.734375 10.234375 -32.734375 C 10.546875 -32.734375 10.84375 -32.101562 11.125 -30.84375 C 11.40625 -29.582031 11.703125 -27.972656 12.015625 -26.015625 L 17.046875 -26.015625 C 17.609375 -26.015625 17.890625 -25.316406 17.890625 -23.921875 C 17.890625 -22.523438 17.609375 -21.828125 17.046875 -21.828125 L 11.953125 -21.828125 L 11.953125 -5.140625 L 12.796875 0.78125 L 12.796875 0.84375 C 12.828125 1.050781 12.828125 1.191406 12.796875 1.265625 C 12.617188 1.535156 11.742188 1.671875 10.171875 1.671875 C 8.597656 1.671875 7.65625 1.359375 7.34375 0.734375 L 4.875 -4.25 Z M 4.875 -21.828125 "/></g></g></g><g fill="#1c2a8b" fill-opacity="1"><g transform="translate(125.224112, 56.07618)"><g><path d="M 11.90625 0.84375 C 8.164062 0.84375 5.566406 -0.171875 4.109375 -2.203125 C 2.660156 -4.234375 1.9375 -7.867188 1.9375 -13.109375 C 1.9375 -16.890625 2.269531 -19.765625 2.9375 -21.734375 C 3.601562 -23.710938 4.609375 -25.0625 5.953125 -25.78125 C 7.296875 -26.5 9.28125 -26.859375 11.90625 -26.859375 C 14.53125 -26.859375 16.515625 -26.488281 17.859375 -25.75 C 19.203125 -25.019531 20.1875 -23.65625 20.8125 -21.65625 C 21.445312 -19.664062 21.765625 -16.835938 21.765625 -13.171875 C 21.765625 -12.953125 21.765625 -12.738281 21.765625 -12.53125 C 21.765625 -12.320312 21.351562 -12.128906 20.53125 -11.953125 C 19.707031 -11.785156 18.722656 -11.703125 17.578125 -11.703125 L 9.5 -11.703125 C 9.5625 -7.609375 9.859375 -5.28125 10.390625 -4.71875 C 10.703125 -4.4375 11.207031 -4.296875 11.90625 -4.296875 C 16.488281 -4.296875 19.617188 -4.523438 21.296875 -4.984375 C 21.367188 -5.015625 21.421875 -5.03125 21.453125 -5.03125 C 21.703125 -5.101562 21.90625 -4.960938 22.0625 -4.609375 C 22.21875 -4.265625 22.296875 -3.441406 22.296875 -2.140625 C 22.296875 -0.847656 22.015625 -0.132812 21.453125 0 C 20.015625 0.5625 16.832031 0.84375 11.90625 0.84375 Z M 9.5 -19.984375 L 9.5 -15.890625 L 14.796875 -15.890625 C 14.648438 -19.953125 14.242188 -21.984375 13.578125 -21.984375 C 12.390625 -21.984375 11.410156 -21.804688 10.640625 -21.453125 C 9.878906 -21.097656 9.5 -20.609375 9.5 -19.984375 Z M 9.5 -19.984375 "/></g></g></g><g fill="#1c2a8b" fill-opacity="1"><g transform="translate(149.036519, 56.07618)"><g><path d="M 8.5 -23.921875 C 11.363281 -25.878906 13.257812 -26.859375 14.1875 -26.859375 C 15.113281 -26.859375 15.953125 -26.679688 16.703125 -26.328125 C 17.453125 -25.984375 18.003906 -25.632812 18.359375 -25.28125 L 18.828125 -24.8125 C 18.304688 -22.570312 17.90625 -21.171875 17.625 -20.609375 C 17.34375 -20.054688 16.960938 -19.78125 16.484375 -19.78125 C 16.015625 -19.78125 15.410156 -19.96875 14.671875 -20.34375 C 13.941406 -20.726562 13.28125 -20.921875 12.6875 -20.921875 C 12.09375 -20.921875 10.90625 -20.378906 9.125 -19.296875 L 9.125 0 C 9.125 0.207031 9.085938 0.347656 9.015625 0.421875 C 8.878906 0.703125 8.234375 0.84375 7.078125 0.84375 C 5.921875 0.84375 4.84375 0.753906 3.84375 0.578125 C 2.851562 0.398438 2.359375 0.207031 2.359375 0 L 2.359375 -26.015625 C 2.359375 -26.578125 3.144531 -26.859375 4.71875 -26.859375 C 6.289062 -26.859375 7.203125 -26.578125 7.453125 -26.015625 L 7.453125 -25.90625 Z M 8.5 -23.921875 "/></g></g></g><g fill="#1c2a8b" fill-opacity="1"><g transform="translate(168.338202, 56.07618)"><g><path d="M 29.21875 0 L 29.21875 -15.953125 C 29.21875 -19.867188 28.9375 -21.828125 28.375 -21.828125 C 27.15625 -21.828125 25.390625 -21.144531 23.078125 -19.78125 C 23.253906 -18.476562 23.34375 -17.203125 23.34375 -15.953125 L 23.34375 0 C 23.34375 0.207031 23.328125 0.347656 23.296875 0.421875 C 23.117188 0.703125 22.441406 0.84375 21.265625 0.84375 C 20.097656 0.84375 18.890625 0.753906 17.640625 0.578125 C 16.398438 0.398438 15.78125 0.207031 15.78125 0 L 15.78125 -17.890625 C 15.71875 -20.515625 15.441406 -21.828125 14.953125 -21.828125 C 13.691406 -21.828125 12.007812 -21.195312 9.90625 -19.9375 L 9.90625 0 C 9.90625 0.207031 9.890625 0.347656 9.859375 0.421875 C 9.679688 0.703125 9.003906 0.84375 7.828125 0.84375 C 6.660156 0.84375 5.457031 0.753906 4.21875 0.578125 C 2.976562 0.398438 2.359375 0.207031 2.359375 0 L 2.359375 -26.015625 C 2.359375 -26.578125 3.054688 -26.859375 4.453125 -26.859375 C 6.660156 -26.859375 7.921875 -26.578125 8.234375 -26.015625 C 8.234375 -25.941406 8.25 -25.90625 8.28125 -25.90625 L 9.28125 -23.921875 C 12.21875 -25.878906 14.40625 -26.859375 15.84375 -26.859375 C 18.914062 -26.859375 20.992188 -25.738281 22.078125 -23.5 C 25.296875 -25.738281 27.691406 -26.859375 29.265625 -26.859375 C 31.859375 -26.859375 33.753906 -26.050781 34.953125 -24.4375 C 36.160156 -22.832031 36.765625 -20.003906 36.765625 -15.953125 L 36.765625 0 C 36.765625 0.207031 36.75 0.347656 36.71875 0.421875 C 36.539062 0.703125 35.863281 0.84375 34.6875 0.84375 C 33.519531 0.84375 32.316406 0.753906 31.078125 0.578125 C 29.835938 0.398438 29.21875 0.207031 29.21875 0 Z M 29.21875 0 "/></g></g></g><g fill="#1c2a8b" fill-opacity="1"><g transform="translate(207.413629, 56.07618)"><g><path d="M 11.90625 0.84375 C 8.164062 0.84375 5.566406 -0.171875 4.109375 -2.203125 C 2.660156 -4.234375 1.9375 -7.867188 1.9375 -13.109375 C 1.9375 -16.890625 2.269531 -19.765625 2.9375 -21.734375 C 3.601562 -23.710938 4.609375 -25.0625 5.953125 -25.78125 C 7.296875 -26.5 9.28125 -26.859375 11.90625 -26.859375 C 14.53125 -26.859375 16.515625 -26.488281 17.859375 -25.75 C 19.203125 -25.019531 20.1875 -23.65625 20.8125 -21.65625 C 21.445312 -19.664062 21.765625 -16.835938 21.765625 -13.171875 C 21.765625 -12.953125 21.765625 -12.738281 21.765625 -12.53125 C 21.765625 -12.320312 21.351562 -12.128906 20.53125 -11.953125 C 19.707031 -11.785156 18.722656 -11.703125 17.578125 -11.703125 L 9.5 -11.703125 C 9.5625 -7.609375 9.859375 -5.28125 10.390625 -4.71875 C 10.703125 -4.4375 11.207031 -4.296875 11.90625 -4.296875 C 16.488281 -4.296875 19.617188 -4.523438 21.296875 -4.984375 C 21.367188 -5.015625 21.421875 -5.03125 21.453125 -5.03125 C 21.703125 -5.101562 21.90625 -4.960938 22.0625 -4.609375 C 22.21875 -4.265625 22.296875 -3.441406 22.296875 -2.140625 C 22.296875 -0.847656 22.015625 -0.132812 21.453125 0 C 20.015625 0.5625 16.832031 0.84375 11.90625 0.84375 Z M 9.5 -19.984375 L 9.5 -15.890625 L 14.796875 -15.890625 C 14.648438 -19.953125 14.242188 -21.984375 13.578125 -21.984375 C 12.390625 -21.984375 11.410156 -21.804688 10.640625 -21.453125 C 9.878906 -21.097656 9.5 -20.609375 9.5 -19.984375 Z M 9.5 -19.984375 "/></g></g></g><g fill="#1c2a8b" fill-opacity="1"><g transform="translate(231.226037, 56.07618)"><g><path d="M 8.5 -23.921875 C 11.363281 -25.878906 13.257812 -26.859375 14.1875 -26.859375 C 15.113281 -26.859375 15.953125 -26.679688 16.703125 -26.328125 C 17.453125 -25.984375 18.003906 -25.632812 18.359375 -25.28125 L 18.828125 -24.8125 C 18.304688 -22.570312 17.90625 -21.171875 17.625 -20.609375 C 17.34375 -20.054688 16.960938 -19.78125 16.484375 -19.78125 C 16.015625 -19.78125 15.410156 -19.96875 14.671875 -20.34375 C 13.941406 -20.726562 13.28125 -20.921875 12.6875 -20.921875 C 12.09375 -20.921875 10.90625 -20.378906 9.125 -19.296875 L 9.125 0 C 9.125 0.207031 9.085938 0.347656 9.015625 0.421875 C 8.878906 0.703125 8.234375 0.84375 7.078125 0.84375 C 5.921875 0.84375 4.84375 0.753906 3.84375 0.578125 C 2.851562 0.398438 2.359375 0.207031 2.359375 0 L 2.359375 -26.015625 C 2.359375 -26.578125 3.144531 -26.859375 4.71875 -26.859375 C 6.289062 -26.859375 7.203125 -26.578125 7.453125 -26.015625 L 7.453125 -25.90625 Z M 8.5 -23.921875 "/></g></g></g><g fill="#1c2a8b" fill-opacity="1"><g transform="translate(250.527719, 56.07618)"><g><path d="M 19.453125 -25.078125 C 19.703125 -24.929688 19.828125 -24.601562 19.828125 -24.09375 C 19.828125 -23.59375 19.703125 -22.921875 19.453125 -22.078125 C 19.003906 -20.546875 18.515625 -19.898438 17.984375 -20.140625 L 17.9375 -20.140625 L 16.109375 -20.875 C 15.085938 -21.332031 13.851562 -21.5625 12.40625 -21.5625 C 10.957031 -21.5625 10.03125 -20.960938 9.625 -19.765625 C 9.21875 -18.578125 9.015625 -16.285156 9.015625 -12.890625 C 9.015625 -9.503906 9.269531 -7.222656 9.78125 -6.046875 C 10.289062 -4.878906 11.257812 -4.296875 12.6875 -4.296875 C 14.75 -4.296875 16.359375 -4.414062 17.515625 -4.65625 C 18.671875 -4.90625 19.265625 -5.03125 19.296875 -5.03125 C 19.546875 -5.101562 19.75 -4.960938 19.90625 -4.609375 C 20.0625 -4.265625 20.140625 -3.441406 20.140625 -2.140625 C 20.140625 -0.847656 19.859375 -0.132812 19.296875 0 C 17.128906 0.5625 15 0.84375 12.90625 0.84375 C 8.675781 0.84375 5.78125 -0.160156 4.21875 -2.171875 C 2.664062 -4.179688 1.890625 -7.828125 1.890625 -13.109375 C 1.890625 -16.921875 2.226562 -19.796875 2.90625 -21.734375 C 3.59375 -23.679688 4.6875 -25.019531 6.1875 -25.75 C 7.6875 -26.488281 9.867188 -26.859375 12.734375 -26.859375 C 15.609375 -26.859375 17.832031 -26.265625 19.40625 -25.078125 Z M 19.453125 -25.078125 "/></g></g></g><g fill="#1c2a8b" fill-opacity="1"><g transform="translate(272.084765, 56.07618)"><g><path d="M 15.84375 -26.859375 C 18.425781 -26.859375 20.320312 -26.050781 21.53125 -24.4375 C 22.738281 -22.832031 23.34375 -20.003906 23.34375 -15.953125 L 23.34375 0 C 23.34375 0.207031 23.328125 0.347656 23.296875 0.421875 C 23.117188 0.703125 22.441406 0.84375 21.265625 0.84375 C 20.097656 0.84375 18.898438 0.753906 17.671875 0.578125 C 16.453125 0.398438 15.84375 0.207031 15.84375 0 L 15.78125 -15.953125 C 15.78125 -19.867188 15.503906 -21.828125 14.953125 -21.828125 C 13.691406 -21.828125 12.007812 -21.195312 9.90625 -19.9375 L 9.90625 0 C 9.90625 0.207031 9.890625 0.347656 9.859375 0.421875 C 9.679688 0.703125 9.003906 0.84375 7.828125 0.84375 C 6.660156 0.84375 5.457031 0.753906 4.21875 0.578125 C 2.976562 0.398438 2.359375 0.207031 2.359375 0 L 2.359375 -39.4375 C 2.359375 -40 2.976562 -40.28125 4.21875 -40.28125 C 5.457031 -40.28125 6.53125 -40.203125 7.4375 -40.046875 C 8.351562 -39.890625 8.828125 -39.6875 8.859375 -39.4375 L 9.8125 -24.28125 C 12.46875 -26 14.476562 -26.859375 15.84375 -26.859375 Z M 15.84375 -26.859375 "/></g></g></g><g fill="#1c2a8b" fill-opacity="1"><g transform="translate(296.421287, 56.07618)"><g/></g></g><g fill="#5b8641" fill-opacity="1"><g transform="translate(106.829748, 322.099755)"><g><path d="M 5.359375 -13.84375 C 6.191406 -13.84375 6.644531 -13.65625 6.71875 -13.28125 L 7.9375 -7.765625 L 9.1875 -0.390625 C 9.207031 -0.273438 9.21875 -0.164062 9.21875 -0.0625 C 9.21875 0.0390625 9.1875 0.125 9.125 0.1875 C 9.0625 0.25 8.859375 0.28125 8.515625 0.28125 C 7.441406 0.28125 6.867188 0.0546875 6.796875 -0.390625 L 6.171875 -4.109375 L 3.65625 -4.109375 L 3.09375 -0.375 C 3.0625 -0.125 3.015625 0.0390625 2.953125 0.125 C 2.898438 0.207031 2.828125 0.253906 2.734375 0.265625 C 2.640625 0.273438 2.484375 0.28125 2.265625 0.28125 L 1.765625 0.28125 C 1.347656 0.28125 1.082031 0.257812 0.96875 0.21875 C 0.707031 0.125 0.554688 0.015625 0.515625 -0.109375 C 0.503906 -0.171875 0.5 -0.222656 0.5 -0.265625 C 0.5 -0.316406 0.625 -1.109375 0.875 -2.640625 C 1.132812 -4.179688 1.445312 -6.015625 1.8125 -8.140625 C 2.175781 -10.265625 2.414062 -11.65625 2.53125 -12.3125 C 2.644531 -12.96875 2.707031 -13.335938 2.71875 -13.421875 C 2.769531 -13.703125 3.648438 -13.84375 5.359375 -13.84375 Z M 4.828125 -11.484375 L 4 -6.28125 L 5.78125 -6.28125 Z M 4.828125 -11.484375 "/></g></g></g><g fill="#5b8641" fill-opacity="1"><g transform="translate(116.531716, 322.099755)"><g/></g></g><g fill="#5b8641" fill-opacity="1"><g transform="translate(121.319707, 322.099755)"><g><path d="M 4.578125 0.859375 L 3.046875 0.875 C 2.296875 0.875 1.84375 0.8125 1.6875 0.6875 C 1.539062 0.570312 1.46875 0.429688 1.46875 0.265625 C 1.46875 0.0976562 1.5 -0.0820312 1.5625 -0.28125 L 2.203125 -2.203125 C 1.617188 -2.453125 1.203125 -2.863281 0.953125 -3.4375 C 0.703125 -4.007812 0.578125 -4.726562 0.578125 -5.59375 C 0.578125 -6.457031 0.628906 -7.109375 0.734375 -7.546875 C 0.847656 -7.992188 1.054688 -8.34375 1.359375 -8.59375 C 1.660156 -8.851562 2.019531 -9.019531 2.4375 -9.09375 C 2.863281 -9.175781 3.441406 -9.21875 4.171875 -9.21875 L 8.09375 -9.21875 C 8.289062 -9.21875 8.390625 -8.976562 8.390625 -8.5 C 8.390625 -8.257812 8.289062 -8.113281 8.09375 -8.0625 L 8.046875 -8.046875 L 7.265625 -7.90625 C 7.609375 -7.351562 7.78125 -6.640625 7.78125 -5.765625 C 7.78125 -4.378906 7.507812 -3.382812 6.96875 -2.78125 C 6.4375 -2.175781 5.503906 -1.875 4.171875 -1.875 L 3.78125 -1.875 L 3.625 -1.03125 C 4.976562 -1 5.859375 -0.945312 6.265625 -0.875 C 6.671875 -0.8125 6.953125 -0.726562 7.109375 -0.625 C 7.265625 -0.53125 7.410156 -0.382812 7.546875 -0.1875 C 7.691406 0 7.773438 0.21875 7.796875 0.46875 C 7.828125 0.71875 7.84375 1.046875 7.84375 1.453125 C 7.84375 2.453125 7.566406 3.175781 7.015625 3.625 C 6.460938 4.082031 5.476562 4.3125 4.0625 4.3125 C 3.40625 4.3125 2.578125 4.21875 1.578125 4.03125 C 1.398438 4 1.3125 3.691406 1.3125 3.109375 C 1.3125 2.535156 1.394531 2.25 1.5625 2.25 C 1.5625 2.25 1.566406 2.25 1.578125 2.25 L 1.609375 2.25 C 2.679688 2.375 3.535156 2.4375 4.171875 2.4375 C 4.816406 2.4375 5.21875 2.382812 5.375 2.28125 C 5.53125 2.1875 5.609375 1.953125 5.609375 1.578125 C 5.609375 1.203125 5.539062 0.988281 5.40625 0.9375 C 5.269531 0.882812 4.992188 0.859375 4.578125 0.859375 Z M 4.625 -7.484375 C 3.84375 -7.484375 3.367188 -7.398438 3.203125 -7.234375 C 3.046875 -7.078125 2.96875 -6.628906 2.96875 -5.890625 C 2.96875 -5.148438 3 -4.613281 3.0625 -4.28125 C 3.132812 -3.957031 3.207031 -3.769531 3.28125 -3.71875 C 3.351562 -3.664062 3.53125 -3.640625 3.8125 -3.640625 C 4.09375 -3.640625 4.316406 -3.644531 4.484375 -3.65625 C 4.660156 -3.675781 4.820312 -3.765625 4.96875 -3.921875 C 5.113281 -4.078125 5.191406 -4.28125 5.203125 -4.53125 C 5.222656 -4.78125 5.234375 -5.175781 5.234375 -5.71875 C 5.234375 -6.257812 5.203125 -6.664062 5.140625 -6.9375 C 5.078125 -7.207031 5.007812 -7.363281 4.9375 -7.40625 C 4.863281 -7.457031 4.757812 -7.484375 4.625 -7.484375 Z M 4.625 -7.484375 "/></g></g></g><g fill="#5b8641" fill-opacity="1"><g transform="translate(130.067684, 322.099755)"><g><path d="M 2.921875 -8.203125 C 3.898438 -8.878906 4.546875 -9.21875 4.859375 -9.21875 C 5.179688 -9.21875 5.472656 -9.15625 5.734375 -9.03125 C 5.992188 -8.914062 6.179688 -8.796875 6.296875 -8.671875 L 6.46875 -8.515625 C 6.28125 -7.742188 6.140625 -7.257812 6.046875 -7.0625 C 5.953125 -6.875 5.820312 -6.78125 5.65625 -6.78125 C 5.5 -6.78125 5.289062 -6.847656 5.03125 -6.984375 C 4.78125 -7.117188 4.550781 -7.1875 4.34375 -7.1875 C 4.144531 -7.1875 3.738281 -7 3.125 -6.625 L 3.125 0 C 3.125 0.0703125 3.113281 0.117188 3.09375 0.140625 C 3.050781 0.234375 2.832031 0.28125 2.4375 0.28125 C 2.039062 0.28125 1.671875 0.25 1.328125 0.1875 C 0.984375 0.132812 0.8125 0.0703125 0.8125 0 L 0.8125 -8.921875 C 0.8125 -9.117188 1.082031 -9.21875 1.625 -9.21875 C 2.164062 -9.21875 2.476562 -9.117188 2.5625 -8.921875 L 2.5625 -8.890625 Z M 2.921875 -8.203125 "/></g></g></g><g fill="#5b8641" fill-opacity="1"><g transform="translate(136.691661, 322.099755)"><g><path d="M 4.09375 0.28125 C 2.800781 0.28125 1.90625 -0.0625 1.40625 -0.75 C 0.914062 -1.445312 0.671875 -2.695312 0.671875 -4.5 C 0.671875 -5.789062 0.78125 -6.773438 1 -7.453125 C 1.226562 -8.140625 1.570312 -8.601562 2.03125 -8.84375 C 2.5 -9.09375 3.179688 -9.21875 4.078125 -9.21875 C 4.984375 -9.21875 5.664062 -9.085938 6.125 -8.828125 C 6.59375 -8.578125 6.929688 -8.109375 7.140625 -7.421875 C 7.359375 -6.742188 7.46875 -5.773438 7.46875 -4.515625 C 7.46875 -4.441406 7.46875 -4.367188 7.46875 -4.296875 C 7.46875 -4.222656 7.328125 -4.15625 7.046875 -4.09375 C 6.765625 -4.039062 6.425781 -4.015625 6.03125 -4.015625 L 3.265625 -4.015625 C 3.285156 -2.609375 3.382812 -1.8125 3.5625 -1.625 C 3.664062 -1.519531 3.84375 -1.46875 4.09375 -1.46875 C 5.65625 -1.46875 6.726562 -1.546875 7.3125 -1.703125 C 7.332031 -1.722656 7.347656 -1.734375 7.359375 -1.734375 C 7.441406 -1.753906 7.507812 -1.703125 7.5625 -1.578125 C 7.625 -1.460938 7.65625 -1.179688 7.65625 -0.734375 C 7.65625 -0.296875 7.554688 -0.0507812 7.359375 0 C 6.867188 0.1875 5.78125 0.28125 4.09375 0.28125 Z M 3.265625 -6.859375 L 3.265625 -5.453125 L 5.078125 -5.453125 C 5.023438 -6.847656 4.882812 -7.546875 4.65625 -7.546875 C 4.25 -7.546875 3.914062 -7.484375 3.65625 -7.359375 C 3.394531 -7.242188 3.265625 -7.078125 3.265625 -6.859375 Z M 3.265625 -6.859375 "/></g></g></g><g fill="#5b8641" fill-opacity="1"><g transform="translate(144.863635, 322.099755)"><g><path d="M 4.09375 0.28125 C 2.800781 0.28125 1.90625 -0.0625 1.40625 -0.75 C 0.914062 -1.445312 0.671875 -2.695312 0.671875 -4.5 C 0.671875 -5.789062 0.78125 -6.773438 1 -7.453125 C 1.226562 -8.140625 1.570312 -8.601562 2.03125 -8.84375 C 2.5 -9.09375 3.179688 -9.21875 4.078125 -9.21875 C 4.984375 -9.21875 5.664062 -9.085938 6.125 -8.828125 C 6.59375 -8.578125 6.929688 -8.109375 7.140625 -7.421875 C 7.359375 -6.742188 7.46875 -5.773438 7.46875 -4.515625 C 7.46875 -4.441406 7.46875 -4.367188 7.46875 -4.296875 C 7.46875 -4.222656 7.328125 -4.15625 7.046875 -4.09375 C 6.765625 -4.039062 6.425781 -4.015625 6.03125 -4.015625 L 3.265625 -4.015625 C 3.285156 -2.609375 3.382812 -1.8125 3.5625 -1.625 C 3.664062 -1.519531 3.84375 -1.46875 4.09375 -1.46875 C 5.65625 -1.46875 6.726562 -1.546875 7.3125 -1.703125 C 7.332031 -1.722656 7.347656 -1.734375 7.359375 -1.734375 C 7.441406 -1.753906 7.507812 -1.703125 7.5625 -1.578125 C 7.625 -1.460938 7.65625 -1.179688 7.65625 -0.734375 C 7.65625 -0.296875 7.554688 -0.0507812 7.359375 0 C 6.867188 0.1875 5.78125 0.28125 4.09375 0.28125 Z M 3.265625 -6.859375 L 3.265625 -5.453125 L 5.078125 -5.453125 C 5.023438 -6.847656 4.882812 -7.546875 4.65625 -7.546875 C 4.25 -7.546875 3.914062 -7.484375 3.65625 -7.359375 C 3.394531 -7.242188 3.265625 -7.078125 3.265625 -6.859375 Z M 3.265625 -6.859375 "/></g></g></g><g fill="#5b8641" fill-opacity="1"><g transform="translate(153.035609, 322.099755)"><g><path d="M 5.4375 -9.21875 C 6.320312 -9.21875 6.972656 -8.941406 7.390625 -8.390625 C 7.804688 -7.835938 8.015625 -6.863281 8.015625 -5.46875 L 8.015625 0 C 8.015625 0.0703125 8.003906 0.117188 7.984375 0.140625 C 7.929688 0.234375 7.703125 0.28125 7.296875 0.28125 C 6.898438 0.28125 6.488281 0.25 6.0625 0.1875 C 5.644531 0.132812 5.4375 0.0703125 5.4375 0 L 5.421875 -5.46875 C 5.421875 -6.8125 5.320312 -7.484375 5.125 -7.484375 C 4.695312 -7.484375 4.125 -7.269531 3.40625 -6.84375 L 3.40625 0 C 3.40625 0.0703125 3.398438 0.117188 3.390625 0.140625 C 3.328125 0.234375 3.09375 0.28125 2.6875 0.28125 C 2.289062 0.28125 1.878906 0.25 1.453125 0.1875 C 1.023438 0.132812 0.8125 0.0703125 0.8125 0 L 0.8125 -8.921875 C 0.8125 -9.117188 1.050781 -9.21875 1.53125 -9.21875 C 2.28125 -9.21875 2.710938 -9.117188 2.828125 -8.921875 C 2.828125 -8.898438 2.832031 -8.890625 2.84375 -8.890625 L 3.1875 -8.203125 C 4.195312 -8.878906 4.945312 -9.21875 5.4375 -9.21875 Z M 5.4375 -9.21875 "/></g></g></g><g fill="#5b8641" fill-opacity="1"><g transform="translate(161.819578, 322.099755)"><g/></g></g><g fill="#5b8641" fill-opacity="1"><g transform="translate(166.607568, 322.099755)"><g><path d="M 0.5 -8.984375 C 0.5 -9.140625 0.71875 -9.21875 1.15625 -9.21875 C 1.59375 -9.21875 2 -9.1875 2.375 -9.125 C 2.757812 -9.0625 2.957031 -8.992188 2.96875 -8.921875 L 4.578125 -2.609375 L 5.640625 -7.484375 C 5.640625 -7.609375 5.703125 -7.6875 5.828125 -7.71875 C 5.972656 -7.757812 6.15625 -7.78125 6.375 -7.78125 C 6.59375 -7.78125 6.882812 -7.75 7.25 -7.6875 C 7.625 -7.632812 7.820312 -7.566406 7.84375 -7.484375 L 9.09375 -2.578125 L 10.5 -8.921875 C 10.539062 -9.117188 10.726562 -9.21875 11.0625 -9.21875 C 11.40625 -9.21875 11.691406 -9.207031 11.921875 -9.1875 C 12.472656 -9.125 12.734375 -9.035156 12.703125 -8.921875 L 12.6875 -8.890625 L 10.4375 0 C 10.394531 0.1875 10.164062 0.28125 9.75 0.28125 C 9.332031 0.28125 8.890625 0.25 8.421875 0.1875 C 7.960938 0.132812 7.722656 0.0703125 7.703125 0 L 6.734375 -3.234375 L 5.921875 0 C 5.867188 0.1875 5.632812 0.28125 5.21875 0.28125 C 4.8125 0.28125 4.375 0.25 3.90625 0.1875 C 3.445312 0.132812 3.207031 0.0703125 3.1875 0 L 0.515625 -8.890625 L 0.515625 -8.921875 C 0.503906 -8.953125 0.5 -8.972656 0.5 -8.984375 Z M 0.5 -8.984375 "/></g></g></g><g fill="#5b8641" fill-opacity="1"><g transform="translate(179.819531, 322.099755)"><g><path d="M 4.9375 -0.5625 C 4.3125 0 3.753906 0.28125 3.265625 0.28125 C 2.773438 0.28125 2.378906 0.25 2.078125 0.1875 C 1.785156 0.125 1.519531 -0.015625 1.28125 -0.234375 C 1.039062 -0.460938 0.867188 -0.785156 0.765625 -1.203125 C 0.671875 -1.628906 0.625 -2.1875 0.625 -2.875 C 0.625 -3.851562 1.097656 -4.519531 2.046875 -4.875 L 4.625 -5.546875 C 4.613281 -6.328125 4.535156 -6.828125 4.390625 -7.046875 C 4.242188 -7.273438 3.929688 -7.390625 3.453125 -7.390625 C 2.972656 -7.390625 2.5625 -7.3125 2.21875 -7.15625 L 1.578125 -6.90625 L 1.5625 -6.90625 C 1.457031 -6.851562 1.363281 -6.90625 1.28125 -7.0625 C 1.0625 -7.507812 0.953125 -7.863281 0.953125 -8.125 C 0.953125 -8.382812 0.972656 -8.53125 1.015625 -8.5625 C 1.054688 -8.59375 1.078125 -8.613281 1.078125 -8.625 C 1.679688 -9.019531 2.457031 -9.21875 3.40625 -9.21875 C 4.363281 -9.21875 5.097656 -9.085938 5.609375 -8.828125 C 6.128906 -8.578125 6.503906 -8.117188 6.734375 -7.453125 C 6.972656 -6.796875 7.09375 -5.8125 7.09375 -4.5 L 7.0625 0 C 7.0625 0.0703125 7.046875 0.117188 7.015625 0.140625 C 6.972656 0.234375 6.75 0.28125 6.34375 0.28125 C 5.59375 0.28125 5.21875 0.1875 5.21875 0 Z M 2.625 -2.84375 C 2.625 -1.976562 2.878906 -1.519531 3.390625 -1.46875 C 3.734375 -1.46875 3.984375 -1.53125 4.140625 -1.65625 C 4.472656 -1.882812 4.640625 -2.738281 4.640625 -4.21875 C 4.015625 -4.132812 3.519531 -3.960938 3.15625 -3.703125 C 2.800781 -3.441406 2.625 -3.15625 2.625 -2.84375 Z M 2.625 -2.84375 "/></g></g></g><g fill="#5b8641" fill-opacity="1"><g transform="translate(187.64951, 322.099755)"><g><path d="M 0.375 -8.984375 C 0.375 -9.140625 0.59375 -9.21875 1.03125 -9.21875 C 1.46875 -9.21875 1.875 -9.1875 2.25 -9.125 C 2.632812 -9.0625 2.832031 -8.992188 2.84375 -8.921875 L 4.453125 -2.765625 L 5.84375 -8.921875 C 5.894531 -9.117188 6.085938 -9.21875 6.421875 -9.21875 C 7.085938 -9.21875 7.523438 -9.179688 7.734375 -9.109375 C 7.953125 -9.035156 8.0625 -8.984375 8.0625 -8.953125 L 4.46875 4.03125 C 4.414062 4.21875 4.222656 4.3125 3.890625 4.3125 C 3.554688 4.3125 3.28125 4.300781 3.0625 4.28125 C 2.59375 4.21875 2.367188 4.132812 2.390625 4.03125 C 2.390625 4 2.394531 3.96875 2.40625 3.9375 L 3.328125 0 L 0.390625 -8.890625 L 0.390625 -8.921875 C 0.378906 -8.953125 0.375 -8.972656 0.375 -8.984375 Z M 0.375 -8.984375 "/></g></g></g><g fill="#5b8641" fill-opacity="1"><g transform="translate(195.929481, 322.099755)"><g/></g></g><g fill="#5b8641" fill-opacity="1"><g transform="translate(200.717472, 322.099755)"><g><path d="M 0.671875 -4.5 C 0.671875 -5.8125 0.78125 -6.800781 1 -7.46875 C 1.226562 -8.144531 1.585938 -8.601562 2.078125 -8.84375 C 2.578125 -9.09375 3.304688 -9.21875 4.265625 -9.21875 C 5.222656 -9.21875 5.945312 -9.09375 6.4375 -8.84375 C 6.9375 -8.601562 7.296875 -8.144531 7.515625 -7.46875 C 7.742188 -6.800781 7.859375 -5.8125 7.859375 -4.5 C 7.859375 -2.695312 7.597656 -1.445312 7.078125 -0.75 C 6.566406 -0.0625 5.628906 0.28125 4.265625 0.28125 C 2.898438 0.28125 1.957031 -0.0625 1.4375 -0.75 C 0.925781 -1.445312 0.671875 -2.695312 0.671875 -4.5 Z M 3.109375 -4.5 C 3.109375 -2.476562 3.300781 -1.46875 3.6875 -1.46875 C 4.21875 -1.46875 4.609375 -1.554688 4.859375 -1.734375 C 4.992188 -1.828125 5.082031 -2 5.125 -2.25 C 5.226562 -2.75 5.28125 -3.5 5.28125 -4.5 C 5.28125 -6.488281 5.085938 -7.484375 4.703125 -7.484375 C 3.984375 -7.484375 3.535156 -7.316406 3.359375 -6.984375 C 3.191406 -6.660156 3.109375 -5.832031 3.109375 -4.5 Z M 3.109375 -4.5 "/></g></g></g><g fill="#5b8641" fill-opacity="1"><g transform="translate(209.249442, 322.099755)"><g><path d="M 6.609375 -11.765625 C 6.253906 -11.921875 5.832031 -12 5.34375 -12 C 4.851562 -12 4.535156 -11.769531 4.390625 -11.3125 C 4.242188 -10.863281 4.171875 -10.066406 4.171875 -8.921875 L 5.90625 -8.921875 C 6.09375 -8.921875 6.1875 -8.679688 6.1875 -8.203125 C 6.1875 -7.722656 6.09375 -7.484375 5.90625 -7.484375 L 4.3125 -7.484375 L 4.3125 4.03125 C 4.3125 4.101562 4.300781 4.148438 4.28125 4.171875 C 4.238281 4.265625 4.015625 4.3125 3.609375 4.3125 C 3.203125 4.3125 2.796875 4.28125 2.390625 4.21875 C 1.984375 4.164062 1.78125 4.101562 1.78125 4.03125 L 1.78125 -7.484375 L 0.34375 -7.484375 C 0.195312 -7.484375 0.113281 -7.515625 0.09375 -7.578125 C 0.0820312 -7.648438 0.078125 -7.726562 0.078125 -7.8125 C 0.078125 -8.332031 0.164062 -8.609375 0.34375 -8.640625 L 1.78125 -8.921875 C 1.78125 -10.859375 2.035156 -12.160156 2.546875 -12.828125 C 3.054688 -13.492188 4.046875 -13.828125 5.515625 -13.828125 C 6.460938 -13.828125 7.203125 -13.625 7.734375 -13.21875 L 7.765625 -13.21875 C 7.867188 -13.15625 7.921875 -13.046875 7.921875 -12.890625 C 7.921875 -12.742188 7.894531 -12.570312 7.84375 -12.375 C 7.800781 -12.1875 7.742188 -12.015625 7.671875 -11.859375 C 7.609375 -11.703125 7.546875 -11.59375 7.484375 -11.53125 C 7.421875 -11.476562 7.367188 -11.457031 7.328125 -11.46875 C 7.285156 -11.476562 7.265625 -11.488281 7.265625 -11.5 Z M 6.609375 -11.765625 "/></g></g></g><g fill="#5b8641" fill-opacity="1"><g transform="translate(215.891421, 322.099755)"><g/></g></g><g fill="#5b8641" fill-opacity="1"><g transform="translate(220.679411, 322.099755)"><g><path d="M 7.421875 -0.375 L 7.421875 -8.546875 L 6.25 -6.375 L 4.421875 -6.375 L 3.328125 -8.515625 L 3.328125 -0.390625 C 3.328125 -0.179688 3.320312 -0.0390625 3.3125 0.03125 C 3.257812 0.195312 3.023438 0.28125 2.609375 0.28125 C 1.410156 0.28125 0.8125 0.0625 0.8125 -0.375 L 0.8125 -13.140625 C 0.8125 -13.597656 1.222656 -13.828125 2.046875 -13.828125 C 2.878906 -13.828125 3.378906 -13.601562 3.546875 -13.15625 L 5.359375 -8.515625 L 7.265625 -13.171875 C 7.367188 -13.441406 7.488281 -13.617188 7.625 -13.703125 C 7.757812 -13.785156 8.003906 -13.828125 8.359375 -13.828125 C 9.210938 -13.828125 9.648438 -13.59375 9.671875 -13.125 L 9.953125 -7.765625 L 9.953125 -0.5 C 9.953125 -0.144531 9.914062 0.0703125 9.84375 0.15625 C 9.78125 0.238281 9.566406 0.28125 9.203125 0.28125 C 8.835938 0.28125 8.539062 0.269531 8.3125 0.25 C 8.082031 0.226562 7.875 0.164062 7.6875 0.0625 C 7.507812 -0.0390625 7.421875 -0.1875 7.421875 -0.375 Z M 7.421875 -0.375 "/></g></g></g><g fill="#5b8641" fill-opacity="1"><g transform="translate(231.425378, 322.099755)"><g><path d="M 4.09375 0.28125 C 2.800781 0.28125 1.90625 -0.0625 1.40625 -0.75 C 0.914062 -1.445312 0.671875 -2.695312 0.671875 -4.5 C 0.671875 -5.789062 0.78125 -6.773438 1 -7.453125 C 1.226562 -8.140625 1.570312 -8.601562 2.03125 -8.84375 C 2.5 -9.09375 3.179688 -9.21875 4.078125 -9.21875 C 4.984375 -9.21875 5.664062 -9.085938 6.125 -8.828125 C 6.59375 -8.578125 6.929688 -8.109375 7.140625 -7.421875 C 7.359375 -6.742188 7.46875 -5.773438 7.46875 -4.515625 C 7.46875 -4.441406 7.46875 -4.367188 7.46875 -4.296875 C 7.46875 -4.222656 7.328125 -4.15625 7.046875 -4.09375 C 6.765625 -4.039062 6.425781 -4.015625 6.03125 -4.015625 L 3.265625 -4.015625 C 3.285156 -2.609375 3.382812 -1.8125 3.5625 -1.625 C 3.664062 -1.519531 3.84375 -1.46875 4.09375 -1.46875 C 5.65625 -1.46875 6.726562 -1.546875 7.3125 -1.703125 C 7.332031 -1.722656 7.347656 -1.734375 7.359375 -1.734375 C 7.441406 -1.753906 7.507812 -1.703125 7.5625 -1.578125 C 7.625 -1.460938 7.65625 -1.179688 7.65625 -0.734375 C 7.65625 -0.296875 7.554688 -0.0507812 7.359375 0 C 6.867188 0.1875 5.78125 0.28125 4.09375 0.28125 Z M 3.265625 -6.859375 L 3.265625 -5.453125 L 5.078125 -5.453125 C 5.023438 -6.847656 4.882812 -7.546875 4.65625 -7.546875 C 4.25 -7.546875 3.914062 -7.484375 3.65625 -7.359375 C 3.394531 -7.242188 3.265625 -7.078125 3.265625 -6.859375 Z M 3.265625 -6.859375 "/></g></g></g><g fill="#5b8641" fill-opacity="1"><g transform="translate(239.597352, 322.099755)"><g><path d="M 2.921875 -8.203125 C 3.898438 -8.878906 4.546875 -9.21875 4.859375 -9.21875 C 5.179688 -9.21875 5.472656 -9.15625 5.734375 -9.03125 C 5.992188 -8.914062 6.179688 -8.796875 6.296875 -8.671875 L 6.46875 -8.515625 C 6.28125 -7.742188 6.140625 -7.257812 6.046875 -7.0625 C 5.953125 -6.875 5.820312 -6.78125 5.65625 -6.78125 C 5.5 -6.78125 5.289062 -6.847656 5.03125 -6.984375 C 4.78125 -7.117188 4.550781 -7.1875 4.34375 -7.1875 C 4.144531 -7.1875 3.738281 -7 3.125 -6.625 L 3.125 0 C 3.125 0.0703125 3.113281 0.117188 3.09375 0.140625 C 3.050781 0.234375 2.832031 0.28125 2.4375 0.28125 C 2.039062 0.28125 1.671875 0.25 1.328125 0.1875 C 0.984375 0.132812 0.8125 0.0703125 0.8125 0 L 0.8125 -8.921875 C 0.8125 -9.117188 1.082031 -9.21875 1.625 -9.21875 C 2.164062 -9.21875 2.476562 -9.117188 2.5625 -8.921875 L 2.5625 -8.890625 Z M 2.921875 -8.203125 "/></g></g></g><g fill="#5b8641" fill-opacity="1"><g transform="translate(246.221329, 322.099755)"><g><path d="M 6.671875 -8.609375 C 6.753906 -8.554688 6.796875 -8.441406 6.796875 -8.265625 C 6.796875 -8.097656 6.753906 -7.867188 6.671875 -7.578125 C 6.515625 -7.046875 6.347656 -6.820312 6.171875 -6.90625 L 6.15625 -6.90625 L 5.53125 -7.15625 C 5.175781 -7.3125 4.75 -7.390625 4.25 -7.390625 C 3.757812 -7.390625 3.441406 -7.1875 3.296875 -6.78125 C 3.160156 -6.375 3.09375 -5.585938 3.09375 -4.421875 C 3.09375 -3.265625 3.179688 -2.484375 3.359375 -2.078125 C 3.535156 -1.671875 3.867188 -1.46875 4.359375 -1.46875 C 5.066406 -1.46875 5.617188 -1.507812 6.015625 -1.59375 C 6.410156 -1.6875 6.613281 -1.734375 6.625 -1.734375 C 6.707031 -1.753906 6.773438 -1.703125 6.828125 -1.578125 C 6.878906 -1.460938 6.90625 -1.179688 6.90625 -0.734375 C 6.90625 -0.296875 6.8125 -0.0507812 6.625 0 C 5.882812 0.1875 5.148438 0.28125 4.421875 0.28125 C 2.972656 0.28125 1.976562 -0.0625 1.4375 -0.75 C 0.90625 -1.4375 0.640625 -2.6875 0.640625 -4.5 C 0.640625 -5.8125 0.753906 -6.796875 0.984375 -7.453125 C 1.222656 -8.117188 1.597656 -8.578125 2.109375 -8.828125 C 2.628906 -9.085938 3.378906 -9.21875 4.359375 -9.21875 C 5.347656 -9.21875 6.113281 -9.015625 6.65625 -8.609375 Z M 6.671875 -8.609375 "/></g></g></g><g fill="#5b8641" fill-opacity="1"><g transform="translate(253.619305, 322.099755)"><g><path d="M 5.4375 -9.21875 C 6.320312 -9.21875 6.972656 -8.941406 7.390625 -8.390625 C 7.804688 -7.835938 8.015625 -6.863281 8.015625 -5.46875 L 8.015625 0 C 8.015625 0.0703125 8.003906 0.117188 7.984375 0.140625 C 7.929688 0.234375 7.703125 0.28125 7.296875 0.28125 C 6.898438 0.28125 6.488281 0.25 6.0625 0.1875 C 5.644531 0.132812 5.4375 0.0703125 5.4375 0 L 5.421875 -5.46875 C 5.421875 -6.8125 5.320312 -7.484375 5.125 -7.484375 C 4.695312 -7.484375 4.125 -7.269531 3.40625 -6.84375 L 3.40625 0 C 3.40625 0.0703125 3.398438 0.117188 3.390625 0.140625 C 3.328125 0.234375 3.09375 0.28125 2.6875 0.28125 C 2.289062 0.28125 1.878906 0.25 1.453125 0.1875 C 1.023438 0.132812 0.8125 0.0703125 0.8125 0 L 0.8125 -13.53125 C 0.8125 -13.726562 1.023438 -13.828125 1.453125 -13.828125 C 1.878906 -13.828125 2.25 -13.796875 2.5625 -13.734375 C 2.875 -13.679688 3.035156 -13.613281 3.046875 -13.53125 L 3.359375 -8.328125 C 4.273438 -8.921875 4.96875 -9.21875 5.4375 -9.21875 Z M 5.4375 -9.21875 "/></g></g></g><g fill="#5b8641" fill-opacity="1"><g transform="translate(261.971282, 322.099755)"><g/></g></g><g fill="#5b8641" fill-opacity="1"><g transform="translate(266.759273, 322.099755)"><g><path d="M 4.09375 -13.015625 L 2.921875 -3.5625 L 1.140625 -3.765625 L 0.84375 -4.046875 L 1.140625 -9.578125 L 1.703125 -13.53125 L 3.796875 -13.296875 Z M 1.703125 0.28125 C 0.835938 0.28125 0.40625 -0.144531 0.40625 -1 C 0.40625 -1.863281 0.835938 -2.296875 1.703125 -2.296875 C 2.566406 -2.296875 3 -1.863281 3 -1 C 3 -0.144531 2.566406 0.28125 1.703125 0.28125 Z M 1.703125 0.28125 "/></g></g></g></svg>
